<?xml version="1.0" encoding="UTF-8" standalone="no"?>
<svg
   xmlns:dc="http://purl.org/dc/elements/1.1/"
   xmlns:cc="http://creativecommons.org/ns#"
   xmlns:rdf="http://www.w3.org/1999/02/22-rdf-syntax-ns#"
   xmlns:svg="http://www.w3.org/2000/svg"
   xmlns="http://www.w3.org/2000/svg"
   xmlns:sodipodi="http://sodipodi.sourceforge.net/DTD/sodipodi-0.dtd"
   xmlns:inkscape="http://www.inkscape.org/namespaces/inkscape"
   height="512pt"
   viewBox="0 0 512 512"
   width="512pt"
   version="1.1"
   id="svg8"
   sodipodi:docname="help.svg"
   inkscape:version="1.0.2 (e86c870879, 2021-01-15)">
  <metadata
     id="metadata14">
    <rdf:RDF>
      <cc:Work
         rdf:about="">
        <dc:format>image/svg+xml</dc:format>
        <dc:type
           rdf:resource="http://purl.org/dc/dcmitype/StillImage" />
      </cc:Work>
    </rdf:RDF>
  </metadata>
  <defs
     id="defs12" />
  <sodipodi:namedview
     pagecolor="#ffffff"
     bordercolor="#666666"
     borderopacity="1"
     objecttolerance="10"
     gridtolerance="10"
     guidetolerance="10"
     inkscape:pageopacity="0"
     inkscape:pageshadow="2"
     inkscape:window-width="1920"
     inkscape:window-height="1051"
     id="namedview10"
     showgrid="false"
     inkscape:zoom="1.2436523"
     inkscape:cx="341.33333"
     inkscape:cy="341.33333"
     inkscape:window-x="1920"
     inkscape:window-y="0"
     inkscape:window-maximized="1"
     inkscape:current-layer="svg8"
     inkscape:document-rotation="0" />
  <path
     d="m512 346.5c0-74.628906-50.285156-139.832031-121.195312-159.480469-4.457032-103.878906-90.347657-187.019531-195.304688-187.019531-107.800781 0-195.5 87.699219-195.5 195.5 0 35.132812 9.351562 69.339844 27.109375 99.371094l-26.390625 95.40625 95.410156-26.386719c27.605469 16.324219 58.746094 25.519531 90.886719 26.90625 19.644531 70.914063 84.851563 121.203125 159.484375 121.203125 29.789062 0 58.757812-7.933594 84.210938-23.007812l80.566406 22.285156-22.285156-80.566406c15.074218-25.453126 23.007812-54.421876 23.007812-84.210938zm-411.136719-15.046875-57.117187 15.800781 15.800781-57.117187-3.601563-5.632813c-16.972656-26.554687-25.945312-57.332031-25.945312-89.003906 0-91.257812 74.242188-165.5 165.5-165.5s165.5 74.242188 165.5 165.5-74.242188 165.5-165.5 165.5c-31.671875 0-62.445312-8.972656-89.003906-25.945312zm367.390625 136.800781-42.382812-11.726562-5.660156 3.683594c-21.941407 14.253906-47.433594 21.789062-73.710938 21.789062-58.65625 0-110.199219-37.925781-128.460938-92.308594 89.820313-10.355468 161.296876-81.832031 171.65625-171.65625 54.378907 18.265625 92.304688 69.808594 92.304688 128.464844 0 26.277344-7.535156 51.769531-21.789062 73.710938l-3.683594 5.660156zm0 0"
     id="path2"
     style="fill:#009eff;fill-opacity:1" />
  <path
     d="m180.5 271h30v30h-30zm0 0"
     id="path4"
     style="fill:#009eff;fill-opacity:1" />
  <path
     d="m225.5 150c0 8.519531-3.46875 16.382812-9.765625 22.144531l-35.234375 32.25v36.605469h30v-23.394531l25.488281-23.328125c12.398438-11.347656 19.511719-27.484375 19.511719-44.277344 0-33.085938-26.914062-60-60-60s-60 26.914062-60 60h30c0-16.542969 13.457031-30 30-30s30 13.457031 30 30zm0 0"
     id="path6"
     style="fill:#009eff;fill-opacity:1" />
  <path
     style="fill:#ffffff;fill-opacity:1;stroke:none;stroke-width:0.804083"
     d="m 239.21476,479.97784 c -35.18849,-3.89054 -67.28948,-15.02423 -96.80537,-33.57533 l -7.84954,-4.93353 -37.503675,10.39761 c -20.627022,5.71869 -37.604028,10.29726 -37.726682,10.1746 -0.122654,-0.12265 4.449709,-17.12525 10.160807,-37.78356 l 10.383813,-37.56055 -5.197929,-8.19814 C 56.262528,349.45708 44.946489,316.35756 41.364193,281.06105 40.133615,268.93613 40.810586,240.76864 42.611481,229.16371 55.917296,143.42135 114.80841,75.279977 197.80447,49.593957 c 61.66829,-19.085399 132.54481,-7.986988 186.94936,29.274022 16.37953,11.218139 35.64234,29.072691 47.66759,44.182741 21.91818,27.54076 37.2636,60.32876 43.98798,93.98755 3.343,16.73329 4.27678,26.45366 4.2546,44.28878 -0.0546,43.86875 -12.41648,84.55852 -36.7653,121.01453 -31.28519,46.8414 -79.18127,80.16254 -133.52258,92.89121 -15.06479,3.52871 -27.40995,4.92169 -46.23478,5.21695 -9.95053,0.15607 -21.1675,-0.0563 -24.92658,-0.4719 z m 41.81233,-98.44035 v -20.50412 h -20.50413 -20.50412 v 20.50412 20.50413 h 20.50412 20.50413 z m 0,-75.49898 v -15.59477 l 16.68472,-15.24831 c 20.70559,-18.923 26.2602,-24.78858 31.4306,-33.19019 7.97061,-12.95181 11.60005,-26.30848 11.57378,-42.59261 -0.0146,-9.06608 -0.3629,-12.18034 -2.11319,-18.89595 -7.57769,-29.07462 -29.16317,-50.72602 -58.23894,-58.4168 -7.93141,-2.09791 -22.73067,-2.8182 -31.51458,-1.53383 -33.07436,4.83611 -60.03269,30.28816 -66.7971,63.06487 -0.83301,4.03636 -1.51933,9.41941 -1.52514,11.96232 l -0.0106,4.62348 h 20.08676 20.08676 l 0.33054,-1.80919 c 0.18179,-0.99505 0.72765,-3.98021 1.213,-6.63369 2.40246,-13.13446 13.41489,-25.2954 26.63001,-29.40729 7.15741,-2.22703 16.93693,-2.19916 23.74876,0.0677 10.8013,3.59444 18.53118,10.41171 23.48728,20.71428 5.48136,11.39444 5.37268,23.40538 -0.31465,34.77368 -3.08962,6.17579 -6.68334,9.79212 -37.93959,38.17833 l -17.70763,16.08166 -0.0595,24.72556 -0.0596,24.72553 h 20.50412 20.50413 z"
     id="path852"
     transform="scale(0.74999998)" />
  <path
     style="fill:#ffffff;fill-opacity:1;stroke:none;stroke-width:0.804083"
     d="M 450.28661,641.8976 C 380.60422,637.13054 319.01911,591.80798 293.833,526.75811 c -1.26642,-3.27087 -2.11162,-6.25603 -1.87821,-6.63369 0.2334,-0.37765 1.26074,-0.68665 2.28297,-0.68665 3.60789,0 20.85447,-3.30957 31.29663,-6.00574 59.30546,-15.31267 111.20188,-50.80026 147.02104,-100.53529 23.50047,-32.63049 39.56022,-71.46501 45.7725,-110.68373 l 1.73882,-10.9774 5.3141,1.96188 c 15.20187,5.61228 35.36901,17.19727 49.53867,28.45744 14.04338,11.15983 30.27688,29.61585 40.47572,46.01726 11.75407,18.90247 20.22632,41.3777 24.32237,64.52255 2.1571,12.18874 2.94899,35.96086 1.59555,47.89724 -3.23228,28.50614 -12.03275,54.01083 -26.8568,77.83385 l -6.18717,9.94311 7.64868,27.62314 c 4.20677,15.19273 7.64869,27.75485 7.64869,27.91583 0,0.16099 -12.17615,-3.08446 -27.05811,-7.2121 -14.88196,-4.12764 -27.57926,-7.50479 -28.21621,-7.50479 -0.63695,0 -4.96308,2.38851 -9.61363,5.3078 -32.58773,20.45637 -71.34869,30.43296 -108.392,27.89878 z"
     id="path854"
     transform="scale(0.74999998)" />
</svg>
