<?xml version="1.0" encoding="UTF-8" standalone="no"?>
<svg
   xmlns:dc="http://purl.org/dc/elements/1.1/"
   xmlns:cc="http://creativecommons.org/ns#"
   xmlns:rdf="http://www.w3.org/1999/02/22-rdf-syntax-ns#"
   xmlns:svg="http://www.w3.org/2000/svg"
   xmlns="http://www.w3.org/2000/svg"
   xmlns:sodipodi="http://sodipodi.sourceforge.net/DTD/sodipodi-0.dtd"
   xmlns:inkscape="http://www.inkscape.org/namespaces/inkscape"
   version="1.1"
   id="Capa_1"
   x="0px"
   y="0px"
   viewBox="0 0 511.999 511.999"
   style="enable-background:new 0 0 511.999 511.999;"
   xml:space="preserve"
   sodipodi:docname="location.svg"
   inkscape:version="1.0.2 (e86c870879, 2021-01-15)"><metadata
   id="metadata49"><rdf:RDF><cc:Work
       rdf:about=""><dc:format>image/svg+xml</dc:format><dc:type
         rdf:resource="http://purl.org/dc/dcmitype/StillImage" /></cc:Work></rdf:RDF></metadata><defs
   id="defs47" /><sodipodi:namedview
   pagecolor="#ffffff"
   bordercolor="#666666"
   borderopacity="1"
   objecttolerance="10"
   gridtolerance="10"
   guidetolerance="10"
   inkscape:pageopacity="0"
   inkscape:pageshadow="2"
   inkscape:window-width="1920"
   inkscape:window-height="1011"
   id="namedview45"
   showgrid="false"
   inkscape:zoom="1.6582064"
   inkscape:cx="255.9995"
   inkscape:cy="255.9995"
   inkscape:window-x="0"
   inkscape:window-y="0"
   inkscape:window-maximized="1"
   inkscape:current-layer="Capa_1" />
<g
   id="g6"
   style="fill:#f98e2e;fill-opacity:1">
	<g
   id="g4"
   style="fill:#f98e2e;fill-opacity:1">
		<path
   d="M409.124,63.426C368.224,22.525,313.843,0,256.001,0S143.777,22.525,102.877,63.426    c-40.901,40.902-63.426,95.282-63.426,153.123c0,117.012,110.638,214.337,170.077,266.623c8.26,7.266,15.393,13.541,21.076,18.849    c7.12,6.651,16.259,9.977,25.396,9.977c9.139,0,18.276-3.326,25.397-9.977c5.683-5.309,12.816-11.583,21.076-18.849    c59.439-52.287,170.077-149.611,170.077-266.623C472.549,158.708,450.025,104.328,409.124,63.426z M282.663,460.654    c-8.441,7.425-15.73,13.838-21.74,19.451c-2.761,2.577-7.085,2.578-9.847,0c-6.009-5.615-13.299-12.027-21.74-19.452    c-55.88-49.155-159.895-140.654-159.895-244.103c0-102.868,83.689-186.557,186.558-186.557    c102.868,0,186.557,83.689,186.557,186.557C442.557,319.999,338.543,411.498,282.663,460.654z"
   id="path2"
   style="fill:#f98e2e;fill-opacity:1" />
	</g>
</g>
<g
   id="g12"
   style="fill:#f98e2e;fill-opacity:1">
	<g
   id="g10"
   style="fill:#f98e2e;fill-opacity:1">
		<path
   d="M256.001,112.938c-52.621,0-95.431,42.809-95.431,95.43s42.81,95.43,95.431,95.43s95.43-42.809,95.43-95.43    S308.622,112.938,256.001,112.938z M256.001,273.805c-36.083,0-65.439-29.356-65.439-65.438s29.356-65.438,65.439-65.438    s65.438,29.356,65.438,65.438S292.084,273.805,256.001,273.805z"
   id="path8"
   style="fill:#f98e2e;fill-opacity:1" />
	</g>
</g>
<g
   id="g14">
</g>
<g
   id="g16">
</g>
<g
   id="g18">
</g>
<g
   id="g20">
</g>
<g
   id="g22">
</g>
<g
   id="g24">
</g>
<g
   id="g26">
</g>
<g
   id="g28">
</g>
<g
   id="g30">
</g>
<g
   id="g32">
</g>
<g
   id="g34">
</g>
<g
   id="g36">
</g>
<g
   id="g38">
</g>
<g
   id="g40">
</g>
<g
   id="g42">
</g>
</svg>
