<?xml version="1.0" encoding="UTF-8" standalone="no"?>
<svg
   xmlns:dc="http://purl.org/dc/elements/1.1/"
   xmlns:cc="http://creativecommons.org/ns#"
   xmlns:rdf="http://www.w3.org/1999/02/22-rdf-syntax-ns#"
   xmlns:svg="http://www.w3.org/2000/svg"
   xmlns="http://www.w3.org/2000/svg"
   xmlns:sodipodi="http://sodipodi.sourceforge.net/DTD/sodipodi-0.dtd"
   xmlns:inkscape="http://www.inkscape.org/namespaces/inkscape"
   version="1.1"
   id="Capa_1"
   x="0px"
   y="0px"
   viewBox="0 0 405.333 405.333"
   style="enable-background:new 0 0 405.333 405.333;"
   xml:space="preserve"
   sodipodi:docname="phone-call.svg"
   inkscape:version="1.0.2 (e86c870879, 2021-01-15)"><metadata
   id="metadata43"><rdf:RDF><cc:Work
       rdf:about=""><dc:format>image/svg+xml</dc:format><dc:type
         rdf:resource="http://purl.org/dc/dcmitype/StillImage" /></cc:Work></rdf:RDF></metadata><defs
   id="defs41" /><sodipodi:namedview
   pagecolor="#ffffff"
   bordercolor="#666666"
   borderopacity="1"
   objecttolerance="10"
   gridtolerance="10"
   guidetolerance="10"
   inkscape:pageopacity="0"
   inkscape:pageshadow="2"
   inkscape:window-width="1920"
   inkscape:window-height="1011"
   id="namedview39"
   showgrid="false"
   inkscape:zoom="2.0945741"
   inkscape:cx="202.6665"
   inkscape:cy="202.6665"
   inkscape:window-x="0"
   inkscape:window-y="0"
   inkscape:window-maximized="1"
   inkscape:current-layer="Capa_1" />
<g
   id="g6"
   style="fill:#f98e2e;fill-opacity:1">
	<g
   id="g4"
   style="fill:#f98e2e;fill-opacity:1">
		<path
   d="M373.333,266.88c-25.003,0-49.493-3.904-72.725-11.584c-11.328-3.904-24.171-0.896-31.637,6.699l-46.016,34.752    c-52.779-28.16-86.571-61.931-114.389-114.368l33.813-44.928c8.512-8.533,11.563-20.971,7.915-32.64    C142.592,81.472,138.667,56.96,138.667,32c0-17.643-14.357-32-32-32H32C14.357,0,0,14.357,0,32    c0,205.845,167.488,373.333,373.333,373.333c17.643,0,32-14.357,32-32V298.88C405.333,281.237,390.976,266.88,373.333,266.88z     M384,373.333c0,5.888-4.8,10.667-10.667,10.667c-194.091,0-352-157.909-352-352c0-5.888,4.8-10.667,10.667-10.667h74.667    c5.867,0,10.667,4.779,10.667,10.667c0,27.243,4.267,53.995,12.629,79.36c1.237,3.989,0.235,8.107-3.669,12.16l-38.827,51.413    c-2.453,3.264-2.837,7.637-0.981,11.264c31.637,62.144,70.059,100.587,132.651,132.651c3.605,1.877,8.021,1.493,11.285-0.981    l52.523-39.808c2.859-2.816,7.061-3.797,10.859-2.539c25.515,8.427,52.267,12.693,79.531,12.693    c5.867,0,10.667,4.779,10.667,10.667V373.333z"
   id="path2"
   style="fill:#f98e2e;fill-opacity:1" />
	</g>
</g>
<g
   id="g8">
</g>
<g
   id="g10">
</g>
<g
   id="g12">
</g>
<g
   id="g14">
</g>
<g
   id="g16">
</g>
<g
   id="g18">
</g>
<g
   id="g20">
</g>
<g
   id="g22">
</g>
<g
   id="g24">
</g>
<g
   id="g26">
</g>
<g
   id="g28">
</g>
<g
   id="g30">
</g>
<g
   id="g32">
</g>
<g
   id="g34">
</g>
<g
   id="g36">
</g>
</svg>
